#!OML:ASF Y:\EmotionMaleHayes\Project 1\Capture day 1\Session 1\Male1.ASF
:FULLY-SPECIFIED
:DEGREES
127
root -15.1993 16.0757 0.843688 102.973 85.3035 99.8176
lowerback 14.4753 -0.65885 -7.4617
upperback 8.2806 -1.26973 0.875994
thorax 0.914074 -0.721223 5.30336
lowerneck -24.2092 2.93957 5.07698
upperneck 25.4723 3.67401 -4.20219
head 12.6834 1.60061 -1.79856
rclavicle 1.76918e-014 -3.33958e-014
rhumerus -54.7711 22.0347 -78.6698
rradius 55.093
rwrist -16.5262
rhand -25.6268 -35.6187
rfingers 7.12502
rthumb 0.906152 -65.5966
lclavicle 1.76918e-014 -3.33958e-014
lhumerus -18.4669 -38.9722 77.582
lradius 73.6255
lwrist 16.51
lhand -29.8485 -27.8074
lfingers 7.12502
lthumb -3.17113 2.14879
rfemur -27.2979 0.09383 16.469
rtibia 41.7661
rfoot -21.9357 -6.72276
rtoes -0.149472
lfemur 8.04302 1.61187 -23.813
ltibia 49.2842
lfoot 4.51964 -1.41272
ltoes -21.0548
128
root -14.9571 16.1373 0.847349 106.074 86.5832 102.864
lowerback 14.6387 -0.471242 -6.03842
upperback 8.03346 -0.888502 1.15203
thorax 0.458145 -0.47403 4.74388
lowerneck -24.1966 2.68408 5.25941
upperneck 25.6655 3.2644 -4.23517
head 12.7392 1.43818 -1.91768
rclavicle -1.23246e-014 2.50469e-014
rhumerus -52.9214 19.7085 -78.2918
rradius 53.574
rwrist -14.6771
rhand -25.7261 -35.0531
rfingers 7.12502
rthumb 0.810244 -65.0313
lclavicle -1.23246e-014 2.50469e-014
lhumerus -20.6456 -39.4274 79.7941
lradius 72.0999
lwrist 15.9657
lhand -29.249 -26.9976
lfingers 7.12502
lthumb -2.59215 2.96638
rfemur -25.4744 0.989079 18.0994
rtibia 40.2553
rfoot -22.3572 -7.05307
rtoes 0.358551
lfemur 5.56975 1.78181 -22.1944
ltibia 52.7917
lfoot 3.53413 -1.16149
ltoes -17.4956
129
root -14.7233 16.2051 0.842871 111.169 87.6493 107.852
lowerback 14.3647 -0.358514 -4.79206
upperback 8.12332 -0.569626 1.38557
thorax 0.626682 -0.285549 4.23537
lowerneck -24.3808 2.47438 5.22324
upperneck 25.6243 2.9468 -4.1814
head 12.7387 1.29921 -1.94724
rclavicle -5.96354e-015 -3.33958e-014
rhumerus -50.3617 17.4134 -77.8009
rradius 51.9891
rwrist -12.9397
rhand -25.729 -34.1727
rfingers 7.12502
rthumb 0.807451 -64.1509
lclavicle -5.96354e-015 -3.33958e-014
lhumerus -22.0739 -39.3182 81.6346
lradius 70.1927
lwrist 15.2583
lhand -28.5962 -26.4068
lfingers 7.12502
lthumb -1.96171 3.56393
rfemur -23.7795 1.60112 19.4455
rtibia 38.8562
rfoot -22.8324 -7.11991
rtoes 1.14464
lfemur 2.81605 2.17795 -20.922
ltibia 56.2751
lfoot 1.56972 -0.71555
ltoes -17.8606
130
root -14.4971 16.2758 0.83153 120.84 88.5892 117.334
lowerback 14.1726 -0.259607 -3.60662
upperback 8.09476 -0.296221 1.57635
thorax 0.645175 -0.115501 3.72517
lowerneck -24.5311 2.25136 5.0458
upperneck 25.7541 2.66684 -4.08202
head 12.7998 1.17233 -1.93075
rclavicle -4.77083e-015 -4.37326e-015
rhumerus -47.9597 15.2383 -77.5033
rradius 50.4327
rwrist -11.2944
rhand -25.6532 -33.1241
rfingers 7.12502
rthumb 0.880729 -63.102
lclavicle -4.77083e-015 -4.37326e-015
lhumerus -23.6737 -38.8337 83.5802
lradius 67.9378
lwrist 14.218
lhand -28.2426 -26.349
lfingers 7.12502
lthumb -1.62022 3.6246
rfemur -22.2345 2.0208 20.6058
rtibia 37.5417
rfoot -23.3052 -6.91341
rtoes 2.48402
lfemur -0.206042 2.91967 -19.8242
ltibia 59.5067
lfoot 0.0656327 -0.339696
ltoes -20.5598
131
root -14.259 16.3446 0.818498 164.414 89.2339 160.824
lowerback 14.1055 -0.194883 -2.38141
upperback 8.00013 -0.0704075 1.7844
thorax 0.543592 0.034287 3.21837
lowerneck -24.6607 2.00417 4.87755
upperneck 26.0328 2.37353 -4.02279
head 12.9181 1.03816 -1.93591
rclavicle -1.59028e-015 1.19271e-014
rhumerus -45.913 13.0777 -77.3285
rradius 49.1276
rwrist -9.79907
rhand -25.3363 -32.1954
rfingers 7.12502
rthumb 1.18676 -62.1719
lclavicle -1.59028e-015 1.19271e-014
lhumerus -25.353 -38.2207 85.5823
lradius 65.3814
lwrist 13.0694
lhand -28.0158 -26.1837
lfingers 7.12502
lthumb -1.40116 3.79145
rfemur -20.3968 2.06668 21.7561
rtibia 35.9612
rfoot -23.6077 -6.82472
rtoes 0.702321
lfemur -2.99487 3.47972 -18.6561
ltibia 61.9611
lfoot -0.814454 0.311014
ltoes -19.0055
132
root -14.0129 16.4122 0.808697 216.231 88.8343 212.621
lowerback 14.1239 -0.120678 -1.28694
upperback 7.85779 0.15258 1.97949
thorax 0.359123 0.178302 2.77248
lowerneck -24.6795 1.7403 4.72263
upperneck 26.3302 2.04319 -3.91018
head 13.021 0.899477 -1.92955
rclavicle -3.18055e-015 -9.54166e-015
rhumerus -44.1515 10.789 -77.2333
rradius 48.0501
rwrist -8.58048
rhand -24.9348 -31.2078
rfingers 7.12502
rthumb 1.57454 -61.1817
lclavicle -3.18055e-015 -9.54166e-015
lhumerus -26.9701 -37.5317 87.5531
lradius 62.5968
lwrist 12.0454
lhand -27.5361 -25.9498
lfingers 7.12502
lthumb -0.937833 4.02784
rfemur -18.2962 1.73348 22.7406
rtibia 34.0852
rfoot -23.754 -6.81453
rtoes -3.51474
lfemur -5.68215 3.77974 -17.5837
ltibia 63.7532
lfoot -1.7587 0.88528
ltoes -16.2184
133
root -13.7879 16.4757 0.793903 243.51 88.5108 239.713
lowerback 14.1719 0.126797 -0.54511
upperback 7.65149 0.557474 2.12882
thorax 0.0928504 0.398756 2.4521
lowerneck -24.6191 1.52361 4.58144
upperneck 26.5518 1.81295 -3.91511
head 13.0851 0.789758 -1.95219
rclavicle -1.55052e-014 -3.77691e-014
rhumerus -42.3877 8.86668 -77.2708
rradius 47.1848
rwrist -7.99607
rhand -24.6154 -30.4095
rfingers 7.12502
rthumb 1.88306 -60.3809
lclavicle -1.55052e-014 -3.77691e-014
lhumerus -28.2938 -36.4531 89.3438
lradius 59.4897
lwrist 11.0778
lhand -27.1209 -25.9537
lfingers 7.12502
lthumb -0.536822 4.02537
rfemur -16.7016 1.54859 23.3951
rtibia 32.5301
rfoot -23.7608 -6.25215
rtoes -5.54668
lfemur -8.71742 4.66284 -16.8853
ltibia 65.2673
lfoot -2.59261 1.31763
ltoes -17.7413
